<svg version="1.1" viewBox="0 0 48 48" xmlns="http://www.w3.org/2000/svg">
 <g id="person_pin">
  <mask id="mask0_9983_20406" x="0" y="0" width="48" height="48" maskUnits="userSpaceOnUse">
   <rect id="Bounding box" width="48" height="48" fill="#D9D9D9"/>
  </mask>
  <g mask="url(#mask0_9983_20406)">
   <path d="m23.992 45.591c-0.2186 0-0.4252-0.0393-0.6199-0.1179-0.1947-0.0787-0.3834-0.2093-0.566-0.3919l-4.9761-4.9761h-8.7228c-0.91997 0-1.7177-0.3389-2.3932-1.0168-0.6755-0.6779-1.0132-1.4784-1.0132-2.4017v-29.785c0-0.93657 0.33775-1.7385 1.0132-2.4057 0.67554-0.66721 1.4733-1.0008 2.3932-1.0008h29.785c0.9232 0 1.7238 0.33359 2.4016 1.0008 0.6779 0.66723 1.0169 1.4691 1.0169 2.4057v29.785c0 0.9233-0.339 1.7238-1.0169 2.4017-0.6778 0.6779-1.4784 1.0168-2.4016 1.0168h-8.7109l-4.988 4.9761c-0.1839 0.1826-0.3755 0.3132-0.5746 0.3918-0.1992 0.0787-0.408 0.118-0.6265 0.118zm-14.885-10.984c2-1.8015 4.247-3.2633 6.741-4.3854s5.2094-1.6831 8.1462-1.6831 5.6539 0.557 8.1514 1.6712c2.4974 1.1141 4.7462 2.5759 6.7462 4.3853v-27.693h-29.785v27.705zm14.991-9.6837c1.9582 0 3.61-0.6722 4.9553-2.0165s2.0179-2.9956 2.0179-4.9538-0.6721-3.608-2.0165-4.9493c-1.3443-1.3413-2.9956-2.0119-4.9538-2.0119s-3.6099 0.6701-4.9552 2.0105c-1.3453 1.3403-2.018 2.9896-2.018 4.9478s0.6722 3.61 2.0165 4.9553c1.3444 1.3452 2.9956 2.0179 4.9538 2.0179zm-0.0027-3.1315c-1.0646 0-1.9681-0.3735-2.7105-1.1203-0.7424-0.7469-1.1136-1.6538-1.1136-2.7207s0.3726-1.9715 1.1178-2.7139 1.6501-1.1136 2.7147-1.1136 1.9681 0.3726 2.7104 1.1178c0.7424 0.7452 1.1136 1.6501 1.1136 2.7147 0 1.0645-0.3726 1.97-1.1178 2.7164s-1.6501 1.1196-2.7146 1.1196zm-0.0958 19.447 4.5521-4.5522h7.6979v-0.3782c-1.8-1.5294-3.7276-2.6848-5.7826-3.4661-2.0551-0.7813-4.2109-1.172-6.4674-1.172-2.2334 0-4.3834 0.3907-6.45 1.172-2.0667 0.7813-4 1.9367-5.8 3.4661v0.3782h7.7098l4.5402 4.5522z"/>
  </g>
 </g>
</svg>
