<svg version="1.1" viewBox="0 0 17 18" xmlns="http://www.w3.org/2000/svg">
 <path d="m2.5 16h3v-6h6v6h3v-9l-6-4.5-6 4.5v9zm0 2c-0.55 0-1.0208-0.1958-1.4125-0.5875-0.39167-0.3917-0.5875-0.8625-0.5875-1.4125v-9c0-0.31667 0.070833-0.61667 0.2125-0.9s0.3375-0.51667 0.5875-0.7l6-4.5c0.18333-0.13333 0.375-0.23333 0.575-0.3s0.40833-0.1 0.625-0.1 0.425 0.033333 0.625 0.1 0.39167 0.16667 0.575 0.3l6 4.5c0.25 0.18333 0.4458 0.41667 0.5875 0.7s0.2125 0.58333 0.2125 0.9v9c0 0.55-0.1958 1.0208-0.5875 1.4125s-0.8625 0.5875-1.4125 0.5875h-5v-6h-2v6h-5z"/>
</svg>
